<?xml version="1.0" encoding="utf-8"?>
<!-- Generator: Adobe Illustrator 26.0.3, SVG Export Plug-In . SVG Version: 6.00 Build 0)  -->
<svg version="1.0" id="katman_1" xmlns="http://www.w3.org/2000/svg" xmlns:xlink="http://www.w3.org/1999/xlink" x="0px" y="0px"
	 viewBox="0 0 800 600" style="enable-background:new 0 0 800 600;" xml:space="preserve">
<style type="text/css">
	.st0{fill:#242424;}
</style>
<g id="jarvis-logo" transform="translate(-20.944)">
	<path id="Path_1" class="st0" d="M349.3,309.6c2.3,6.7,6,12.9,13.8,12.6c11.6-0.3,12-11,12-14.8v-43.6h15.3v43.6
		c0,11.8-5.2,28.5-27.4,28.5c-16.9,0-23.7-9.9-27.2-21.7L349.3,309.6z M429.4,306.6L417,335.3H400l35.1-72.5l35.8,72.5h-16.8
		l-12.6-28.8 M441.6,306.6l-6.2-14l-6.2,14 M500,335.3h-14.9v-71.5h28.4c20.5,0,26.7,13.7,26.7,23.2c0,9.5-5.9,18-14.8,21.2
		l13.3,27.1h-16.5L510,310.5h-10L500,335.3z M524.9,287c0.1-5.4-4.2-10-9.6-10.1c-0.5,0-1,0-1.4,0.1h-13.9v20.1h14.4
		c5.6,0.2,10.3-4.1,10.6-9.7C524.9,287.3,524.9,287.1,524.9,287L524.9,287z M546.4,263.8h16.9l18.6,42.9l18.8-42.9h16.8l-34.7,72.5
		h-1.4L546.4,263.8z M646.5,335.3h-15.2v-71.5h15.2L646.5,335.3z M692.8,292c11.6,3.8,26.5,8.2,25.5,23.6
		c-0.7,11.6-11.6,20.6-27.2,20.6c-10.1,0-20.1-2.5-29-7.3l6.6-11.9c6.7,3.5,14.1,5.5,21.6,5.9c6.4,0,11.2-2.6,12-6.9
		c0.9-5.1-4.7-7.8-12-10c-11.3-3.4-26.5-6.9-26.5-22.3c0-13,10.2-20.8,24.2-20.8c9.4,0.3,18.7,2.6,27.2,6.6l-5.4,12.2
		c-6.6-2.9-13.6-4.6-20.8-5.2c-5.3,0-9.9,1.6-10.2,6.6C679.3,287.7,685.5,289.6,692.8,292L692.8,292z"/>
	<path id="Path_2" class="st0" d="M123,323.5h16v38.8h-16V323.5z M221.4,298.1h16v38.8h-16V298.1z M147.4,285.4h16v89.3h-16V285.4z
		 M172.3,289.1h16v68.7h-16L172.3,289.1z M196.7,224.4h16v112.5h-16V224.4z"/>
</g>
</svg>
